<?xml version="1.0" standalone="no"?><!DOCTYPE svg PUBLIC "-//W3C//DTD SVG 1.1//EN" "http://www.w3.org/Graphics/SVG/1.1/DTD/svg11.dtd"><svg xmlns:xlink="http://www.w3.org/1999/xlink" version="1.1" style="font-family:'lucida grande', 'lucida sans unicode', arial, helvetica, sans-serif;font-size:12px;" xmlns="http://www.w3.org/2000/svg" width="600" height="400"><desc>Created with Highcharts 4.2.7</desc><defs><linearGradient x1="0" y1="0" x2="0" y2="1" id="highcharts-83"><stop offset="0" stop-color="rgb(96,96,96)" stop-opacity="0.8"></stop><stop offset="1" stop-color="rgb(16,16,16)" stop-opacity="0.8"></stop></linearGradient><linearGradient x1="0" y1="0" x2="0" y2="1" id="highcharts-84"><stop offset="0" stop-color="rgb(96, 96, 96)" stop-opacity="1"></stop><stop offset="1" stop-color="rgb(16, 16, 16)" stop-opacity="1"></stop></linearGradient><clipPath id="highcharts-85"><rect x="0" y="0" width="527" height="274"></rect></clipPath></defs><rect x="0" y="0" width="600" height="400" fill="url(#highcharts-84)" class=" highcharts-background"></rect><g class="highcharts-grid"></g><g class="highcharts-grid"><path fill="none" d="M 63 318.5 L 590 318.5" stroke="rgb(255, 255, 255)" stroke-opacity=" .1" stroke-width="1" opacity="1"></path><path fill="none" d="M 63 272.5 L 590 272.5" stroke="rgb(255, 255, 255)" stroke-opacity=" .1" stroke-width="1" opacity="1"></path><path fill="none" d="M 63 227.5 L 590 227.5" stroke="rgb(255, 255, 255)" stroke-opacity=" .1" stroke-width="1" opacity="1"></path><path fill="none" d="M 63 181.5 L 590 181.5" stroke="rgb(255, 255, 255)" stroke-opacity=" .1" stroke-width="1" opacity="1"></path><path fill="none" d="M 63 135.5 L 590 135.5" stroke="rgb(255, 255, 255)" stroke-opacity=" .1" stroke-width="1" opacity="1"></path><path fill="none" d="M 63 90.5 L 590 90.5" stroke="rgb(255, 255, 255)" stroke-opacity=" .1" stroke-width="1" opacity="1"></path><path fill="none" d="M 63 43.5 L 590 43.5" stroke="rgb(255, 255, 255)" stroke-opacity=" .1" stroke-width="1" opacity="1"></path></g><g class="highcharts-axis"><path fill="none" d="M 326.5 318 L 326.5 328" stroke="#999" stroke-width="1" opacity="1"></path><path fill="none" d="M 590.5 318 L 590.5 328" stroke="#999" stroke-width="1" opacity="1"></path><path fill="none" d="M 62.5 318 L 62.5 328" stroke="#999" stroke-width="1" opacity="1"></path><path fill="none" d="M 63 318.5 L 590 318.5" stroke="#999" stroke-width="1"></path></g><g class="highcharts-axis"><text x="25.133333206176758" text-anchor="middle" transform="translate(0,0) rotate(270 25.133333206176758 181)" class=" highcharts-yaxis-title" style="color:#aaa;font-size:12px;font-family:lucida grande, lucida sans unicode, verdana, arial, helvetica, sans-serif;text-transform:none;font-weight:bold;fill:#aaa;" y="181"><tspan>Time (ms)</tspan></text></g><g class="highcharts-series-group"><g class="highcharts-series highcharts-series-0" transform="translate(63,44) scale(1 1)" clip-path="url(#highcharts-85)"><rect x="68.5" y="28.5" width="127" height="246" stroke="#FFFFFF" stroke-width="1" fill="#50B432" rx="0" ry="0"></rect><rect x="331.5" y="132.5" width="127" height="142" stroke="#FFFFFF" stroke-width="1" fill="#ED561B" rx="0" ry="0"></rect></g><g class="highcharts-markers highcharts-series-0" transform="translate(63,44) scale(1 1)" clip-path="none"></g><g class="highcharts-series highcharts-series-1" transform="translate(63,44) scale(1 1)" clip-path="url(#highcharts-85)"></g><g class="highcharts-markers highcharts-series-1" transform="translate(63,44) scale(1 1)" clip-path="none"></g></g><text x="300" text-anchor="middle" class="highcharts-title" style="color:#fff;font-size:16px;font-family:lucida grande, lucida sans unicode, verdana, arial, helvetica, sans-serif;text-transform:none;font-weight:normal;fill:#fff;width:536px;" y="22"><tspan>Opaque Pass</tspan></text><g class="highcharts-data-labels highcharts-series-0" transform="translate(63,44) scale(1 1)" opacity="1"><g style="cursor:pointer;" transform="translate(110,-3)"><text x="5" style="font-size: 18px; font-weight: bold; font-family: 'magra', sans-serif; color: rgb(204, 204, 204); fill: rgb(204, 204, 204); text-rendering: geometricprecision; text-shadow: rgb(0, 0, 0) 0px 0px 6px, rgb(0, 0, 0) 0px 0px 3px;" y="22"><tspan>5.38</tspan></text></g><g style="cursor:pointer;" transform="translate(379,101)"><text x="5" style="font-size: 18px; font-weight: bold; font-family: 'magra', sans-serif; color: rgb(204, 204, 204); fill: rgb(204, 204, 204); text-rendering: geometricprecision; text-shadow: rgb(0, 0, 0) 0px 0px 6px, rgb(0, 0, 0) 0px 0px 3px;" y="22"><tspan>3.1</tspan></text></g></g><g class="highcharts-data-labels highcharts-series-1" transform="translate(63,44) scale(1 1)" opacity="1"></g><g class="highcharts-legend" transform="translate(266,359)"><g><g><g class="highcharts-legend-item" transform="translate(8,3)"><text x="21" style="color:#ccc;font-size:9pt;font-weight:bold;cursor:pointer;font-family:lucida grande, lucida sans unicode, verdana, arial, helvetica, sans-serif;text-transform:none;fill:#ccc;" text-anchor="start" y="15">Time</text><rect x="0" y="4" width="16" height="12" fill="#CCC"></rect></g></g></g></g><g class="highcharts-axis-labels highcharts-xaxis-labels"><text x="194.75" style="color:#999;cursor:default;font-size:18px;font-family:lucida grande, lucida sans unicode, verdana, arial, helvetica, sans-serif;text-transform:none;font-weight:bold;fill:#999;" text-anchor="middle" transform="translate(0,0)" y="343" opacity="1"><tspan>Opaque pass off</tspan></text><text x="458.25" style="color:#999;cursor:default;font-size:18px;font-family:lucida grande, lucida sans unicode, verdana, arial, helvetica, sans-serif;text-transform:none;font-weight:bold;fill:#999;" text-anchor="middle" transform="translate(0,0)" y="343" opacity="1"><tspan>Opaque pass on</tspan></text></g><g class="highcharts-axis-labels highcharts-yaxis-labels"><text x="48" style="color:#999;cursor:default;font-size:18px;font-family:lucida grande, lucida sans unicode, verdana, arial, helvetica, sans-serif;text-transform:none;font-weight:bold;fill:#999;width:188px;text-overflow:clip;" text-anchor="end" transform="translate(0,0)" y="324" opacity="1"><tspan>0</tspan></text><text x="48" style="color:#999;cursor:default;font-size:18px;font-family:lucida grande, lucida sans unicode, verdana, arial, helvetica, sans-serif;text-transform:none;font-weight:bold;fill:#999;width:188px;text-overflow:clip;" text-anchor="end" transform="translate(0,0)" y="279" opacity="1"><tspan>1</tspan></text><text x="48" style="color:#999;cursor:default;font-size:18px;font-family:lucida grande, lucida sans unicode, verdana, arial, helvetica, sans-serif;text-transform:none;font-weight:bold;fill:#999;width:188px;text-overflow:clip;" text-anchor="end" transform="translate(0,0)" y="233" opacity="1"><tspan>2</tspan></text><text x="48" style="color:#999;cursor:default;font-size:18px;font-family:lucida grande, lucida sans unicode, verdana, arial, helvetica, sans-serif;text-transform:none;font-weight:bold;fill:#999;width:188px;text-overflow:clip;" text-anchor="end" transform="translate(0,0)" y="187" opacity="1"><tspan>3</tspan></text><text x="48" style="color:#999;cursor:default;font-size:18px;font-family:lucida grande, lucida sans unicode, verdana, arial, helvetica, sans-serif;text-transform:none;font-weight:bold;fill:#999;width:188px;text-overflow:clip;" text-anchor="end" transform="translate(0,0)" y="142" opacity="1"><tspan>4</tspan></text><text x="48" style="color:#999;cursor:default;font-size:18px;font-family:lucida grande, lucida sans unicode, verdana, arial, helvetica, sans-serif;text-transform:none;font-weight:bold;fill:#999;width:188px;text-overflow:clip;" text-anchor="end" transform="translate(0,0)" y="96" opacity="1"><tspan>5</tspan></text><text x="48" style="color:#999;cursor:default;font-size:18px;font-family:lucida grande, lucida sans unicode, verdana, arial, helvetica, sans-serif;text-transform:none;font-weight:bold;fill:#999;width:188px;text-overflow:clip;" text-anchor="end" transform="translate(0,0)" y="50" opacity="1"><tspan>6</tspan></text></g><g class="highcharts-tooltip" display="none" style="cursor:default;padding:0;pointer-events:none;white-space:nowrap;" transform="translate(0,0)"><path fill="none" d="M 3 0 L 13 0 C 16 0 16 0 16 3 L 16 13 C 16 16 16 16 13 16 L 3 16 C 0 16 0 16 0 13 L 0 3 C 0 0 0 0 3 0"  stroke="black" stroke-opacity="0.049999999999999996" stroke-width="5" transform="translate(1, 1)"></path><path fill="none" d="M 3 0 L 13 0 C 16 0 16 0 16 3 L 16 13 C 16 16 16 16 13 16 L 3 16 C 0 16 0 16 0 13 L 0 3 C 0 0 0 0 3 0"  stroke="black" stroke-opacity="0.09999999999999999" stroke-width="3" transform="translate(1, 1)"></path><path fill="none" d="M 3 0 L 13 0 C 16 0 16 0 16 3 L 16 13 C 16 16 16 16 13 16 L 3 16 C 0 16 0 16 0 13 L 0 3 C 0 0 0 0 3 0"  stroke="black" stroke-opacity="0.15" stroke-width="1" transform="translate(1, 1)"></path><path fill="url(#highcharts-83)" d="M 3 0 L 13 0 C 16 0 16 0 16 3 L 16 13 C 16 16 16 16 13 16 L 3 16 C 0 16 0 16 0 13 L 0 3 C 0 0 0 0 3 0"></path><text x="8" style="font-size:12px;color:#fff;fill:#fff;" y="20"></text></g><text x="590" text-anchor="end" style="cursor:pointer;color:#666;font-size:9px;fill:#666;" y="395">meta-chart.com</text></svg>