<?xml version="1.0" encoding="UTF-8" standalone="no"?>
<!DOCTYPE svg PUBLIC "-//W3C//DTD SVG 1.1//EN"
 "http://www.w3.org/Graphics/SVG/1.1/DTD/svg11.dtd">
<!-- Generated by graphviz version 2.40.1 (20161225.0304)
 -->
<!-- Title: G Pages: 1 -->
<svg width="400pt" height="44pt"
 viewBox="0.00 0.00 400.17 44.00" xmlns="http://www.w3.org/2000/svg" xmlns:xlink="http://www.w3.org/1999/xlink">
<g id="graph0" class="graph" transform="scale(1 1) rotate(0) translate(4 40)">
<title>G</title>
<polygon fill="#111111" stroke="transparent" points="-4,4 -4,-40 396.1654,-40 396.1654,4 -4,4"/>
<!-- Layout -->
<g id="node1" class="node">
<title>Layout</title>
<polygon fill="none" stroke="#ffffff" stroke-dasharray="5,2" points="58.0315,-36 -.0105,-36 -.0105,0 58.0315,0 58.0315,-36"/>
<text text-anchor="middle" x="29.0105" y="-13.8" font-family="Helvetica,sans-Serif" font-size="14.00" fill="#ffffff">Layout</text>
</g>
<!-- Display List -->
<g id="node2" class="node">
<title>Display List</title>
<polygon fill="none" stroke="#ffffff" points="175.3552,-36 94.2422,-36 94.2422,0 181.3552,0 181.3552,-30 175.3552,-36"/>
<polyline fill="none" stroke="#ffffff" points="175.3552,-36 175.3552,-30 "/>
<polyline fill="none" stroke="#ffffff" points="181.3552,-30 175.3552,-30 "/>
<text text-anchor="middle" x="137.7987" y="-13.8" font-family="Helvetica,sans-Serif" font-size="14.00" fill="#ffffff">Display List</text>
</g>
<!-- Layout&#45;&gt;Display List -->
<g id="edge1" class="edge">
<title>Layout&#45;&gt;Display List</title>
<path fill="none" stroke="#ffffff" d="M58.1637,-18C66.212,-18 75.2075,-18 84.1751,-18"/>
<polygon fill="#ffffff" stroke="#ffffff" points="94.2359,-18 84.236,-22.5001 89.2359,-18 84.2359,-18.0001 84.2359,-18.0001 84.2359,-18.0001 89.2359,-18 84.2359,-13.5001 94.2359,-18 94.2359,-18"/>
</g>
<!-- Rendering -->
<g id="node3" class="node">
<title>Rendering</title>
<polygon fill="none" stroke="#ffffff" stroke-dasharray="5,2" points="297.9316,-36 217.7906,-36 217.7906,0 297.9316,0 297.9316,-36"/>
<text text-anchor="middle" x="257.8611" y="-13.8" font-family="Helvetica,sans-Serif" font-size="14.00" fill="#ffffff">Rendering</text>
</g>
<!-- Display List&#45;&gt;Rendering -->
<g id="edge2" class="edge">
<title>Display List&#45;&gt;Rendering</title>
<path fill="none" stroke="#ffffff" d="M181.4836,-18C189.9652,-18 198.9181,-18 207.5916,-18"/>
<polygon fill="#ffffff" stroke="#ffffff" points="217.6003,-18 207.6003,-22.5001 212.6003,-18 207.6003,-18.0001 207.6003,-18.0001 207.6003,-18.0001 212.6003,-18 207.6002,-13.5001 217.6003,-18 217.6003,-18"/>
</g>
<!-- Output -->
<g id="node4" class="node">
<title>Output</title>
<polygon fill="none" stroke="#ffffff" points="386.1752,-36 334.136,-36 334.136,0 392.1752,0 392.1752,-30 386.1752,-36"/>
<polyline fill="none" stroke="#ffffff" points="386.1752,-36 386.1752,-30 "/>
<polyline fill="none" stroke="#ffffff" points="392.1752,-30 386.1752,-30 "/>
<text text-anchor="middle" x="363.1556" y="-13.8" font-family="Helvetica,sans-Serif" font-size="14.00" fill="#ffffff">Output</text>
</g>
<!-- Rendering&#45;&gt;Output -->
<g id="edge3" class="edge">
<title>Rendering&#45;&gt;Output</title>
<path fill="none" stroke="#ffffff" d="M297.9688,-18C306.4803,-18 315.4561,-18 323.9341,-18"/>
<polygon fill="#ffffff" stroke="#ffffff" points="333.9639,-18 323.964,-22.5001 328.9639,-18 323.9639,-18.0001 323.9639,-18.0001 323.9639,-18.0001 328.9639,-18 323.9639,-13.5001 333.9639,-18 333.9639,-18"/>
</g>
</g>
</svg>