<?xml version="1.0" encoding="UTF-8" standalone="no"?> <!DOCTYPE svg PUBLIC "-//W3C//DTD SVG 1.1//EN" "http://www.w3.org/Graphics/SVG/1.1/DTD/svg11.dtd"> <!-- Generated by graphviz version 2.40.1 (20161225.0304) --> <!-- Title: G Pages: 1 --> <svg width="664pt" height="60pt" viewBox="0.00 0.00 663.77 60.00" xmlns="http://www.w3.org/2000/svg" xmlns:xlink="http://www.w3.org/1999/xlink"> <g id="graph0" class="graph" transform="scale(1 1) rotate(0) translate(4 56)"> <title>G</title> <polygon fill="#111111" stroke="transparent" points="-4,4 -4,-56 659.767,-56 659.767,4 -4,4"/> <!-- Layout --> <g id="node1" class="node"> <title>Layout</title> <polygon fill="none" stroke="#ffffff" stroke-dasharray="5,2" points="58.0315,-44 -.0105,-44 -.0105,-8 58.0315,-8 58.0315,-44"/> <text text-anchor="middle" x="29.0105" y="-21.8" font-family="Helvetica,sans-Serif" font-size="14.00" fill="#ffffff">Layout</text> </g> <!-- Layers --> <g id="node2" class="node"> <title>Layers</title> <polygon fill="none" stroke="#ffffff" points="154.0327,-44 102.0177,-44 102.0177,-8 160.0327,-8 160.0327,-38 154.0327,-44"/> <polyline fill="none" stroke="#ffffff" points="154.0327,-44 154.0327,-38 "/> <polyline fill="none" stroke="#ffffff" points="160.0327,-38 154.0327,-38 "/> <polygon fill="none" stroke="#ffffff" points="158.0331,-48 98.0173,-48 98.0173,-4 164.0331,-4 164.0331,-42 158.0331,-48"/> <polyline fill="none" stroke="#ffffff" points="158.0331,-48 158.0331,-42 "/> <polyline fill="none" stroke="#ffffff" points="164.0331,-42 158.0331,-42 "/> <polygon fill="none" stroke="#ffffff" points="162.0336,-52 94.0168,-52 94.0168,0 168.0336,0 168.0336,-46 162.0336,-52"/> <polyline fill="none" stroke="#ffffff" points="162.0336,-52 162.0336,-46 "/> <polyline fill="none" stroke="#ffffff" points="168.0336,-46 162.0336,-46 "/> <text text-anchor="middle" x="131.0252" y="-21.8" font-family="Helvetica,sans-Serif" font-size="14.00" fill="#ffffff">Layers</text> </g> <!-- Layout&#45;&gt;Layers --> <g id="edge1" class="edge"> <title>Layout&#45;&gt;Layers</title> <path fill="none" stroke="#ffffff" d="M58.2438,-26C66.1996,-26 75.0254,-26 83.7079,-26"/> <polygon fill="#ffffff" stroke="#ffffff" points="93.7738,-26 83.7739,-30.5001 88.7738,-26 83.7738,-26.0001 83.7738,-26.0001 83.7738,-26.0001 88.7738,-26 83.7738,-21.5001 93.7738,-26 93.7738,-26"/> </g> <!-- Painting --> <g id="node3" class="node"> <title>Painting</title> <polygon fill="none" stroke="#ffffff" stroke-dasharray="5,2" points="270.387,-44 204.2426,-44 204.2426,-8 270.387,-8 270.387,-44"/> <text text-anchor="middle" x="237.3148" y="-21.8" font-family="Helvetica,sans-Serif" font-size="14.00" fill="#ffffff">Painting</text> </g> <!-- Layers&#45;&gt;Painting --> <g id="edge2" class="edge"> <title>Layers&#45;&gt;Painting</title> <path fill="none" stroke="#ffffff" d="M168.2001,-26C176.5419,-26 185.4624,-26 194.0288,-26"/> <polygon fill="#ffffff" stroke="#ffffff" points="204.2395,-26 194.2395,-30.5001 199.2395,-26 194.2395,-26.0001 194.2395,-26.0001 194.2395,-26.0001 199.2395,-26 194.2394,-21.5001 204.2395,-26 204.2395,-26"/> </g> <!-- Painted Layers --> <g id="node4" class="node"> <title>Painted Layers</title> <polygon fill="none" stroke="#ffffff" points="418.1223,-44 314.4413,-44 314.4413,-8 424.1223,-8 424.1223,-38 418.1223,-44"/> <polyline fill="none" stroke="#ffffff" points="418.1223,-44 418.1223,-38 "/> <polyline fill="none" stroke="#ffffff" points="424.1223,-38 418.1223,-38 "/> <polygon fill="none" stroke="#ffffff" points="422.1339,-48 310.4297,-48 310.4297,-4 428.1339,-4 428.1339,-42 422.1339,-48"/> <polyline fill="none" stroke="#ffffff" points="422.1339,-48 422.1339,-42 "/> <polyline fill="none" stroke="#ffffff" points="428.1339,-42 422.1339,-42 "/> <polygon fill="none" stroke="#ffffff" points="426.1455,-52 306.4181,-52 306.4181,0 432.1455,0 432.1455,-46 426.1455,-52"/> <polyline fill="none" stroke="#ffffff" points="426.1455,-52 426.1455,-46 "/> <polyline fill="none" stroke="#ffffff" points="432.1455,-46 426.1455,-46 "/> <text text-anchor="middle" x="369.2818" y="-21.8" font-family="Helvetica,sans-Serif" font-size="14.00" fill="#ffffff">Painted Layers</text> </g> <!-- Painting&#45;&gt;Painted Layers --> <g id="edge3" class="edge"> <title>Painting&#45;&gt;Painted Layers</title> <path fill="none" stroke="#ffffff" d="M270.6156,-26C278.5489,-26 287.3254,-26 296.2762,-26"/> <polygon fill="#ffffff" stroke="#ffffff" points="306.4204,-26 296.4205,-30.5001 301.4204,-26 296.4204,-26.0001 296.4204,-26.0001 296.4204,-26.0001 301.4204,-26 296.4204,-21.5001 306.4204,-26 306.4204,-26"/> </g> <!-- Compositing --> <g id="node5" class="node"> <title>Compositing</title> <polygon fill="none" stroke="#ffffff" stroke-dasharray="5,2" points="561.6396,-44 468.0712,-44 468.0712,-8 561.6396,-8 561.6396,-44"/> <text text-anchor="middle" x="514.8554" y="-21.8" font-family="Helvetica,sans-Serif" font-size="14.00" fill="#ffffff">Compositing</text> </g> <!-- Painted Layers&#45;&gt;Compositing --> <g id="edge4" class="edge"> <title>Painted Layers&#45;&gt;Compositing</title> <path fill="none" stroke="#ffffff" d="M432.2858,-26C440.8081,-26 449.5125,-26 457.9204,-26"/> <polygon fill="#ffffff" stroke="#ffffff" points="467.9968,-26 457.9969,-30.5001 462.9968,-26 457.9968,-26.0001 457.9968,-26.0001 457.9968,-26.0001 462.9968,-26 457.9968,-21.5001 467.9968,-26 467.9968,-26"/> </g> <!-- Output --> <g id="node6" class="node"> <title>Output</title> <polygon fill="none" stroke="#ffffff" points="649.7768,-44 597.7376,-44 597.7376,-8 655.7768,-8 655.7768,-38 649.7768,-44"/> <polyline fill="none" stroke="#ffffff" points="649.7768,-44 649.7768,-38 "/> <polyline fill="none" stroke="#ffffff" points="655.7768,-38 649.7768,-38 "/> <text text-anchor="middle" x="626.7572" y="-21.8" font-family="Helvetica,sans-Serif" font-size="14.00" fill="#ffffff">Output</text> </g> <!-- Compositing&#45;&gt;Output --> <g id="edge5" class="edge"> <title>Compositing&#45;&gt;Output</title> <path fill="none" stroke="#ffffff" d="M561.6635,-26C570.254,-26 579.1401,-26 587.482,-26"/> <polygon fill="#ffffff" stroke="#ffffff" points="597.694,-26 587.694,-30.5001 592.694,-26 587.694,-26.0001 587.694,-26.0001 587.694,-26.0001 592.694,-26 587.694,-21.5001 597.694,-26 597.694,-26"/> </g> </g> </svg>