<svg xmlns="http://www.w3.org/2000/svg" width="1073" height="630" style="overflow: hidden;" aria-label="A chart."><defs id="defs"><clipPath id="_ABSTRACT_RENDERER_ID_2"><rect x="198" y="121" width="677" height="389"></rect></clipPath></defs><rect x="0" y="0" width="1073" height="630" stroke="none" stroke-width="0" fill="#ffffff"></rect><g><text text-anchor="start" x="198" y="94.6" font-family="sans-serif" font-size="16" font-weight="bold" stroke="none" stroke-width="0" fill="#000000">Setup and rasterization time, Arial 24px</text><rect x="198" y="81" width="677" height="16" stroke="none" stroke-width="0" fill-opacity="0" fill="#ffffff"></rect></g><g><rect x="392" y="572" width="288" height="15" stroke="none" stroke-width="0" fill-opacity="0" fill="#ffffff"></rect><g><rect x="392" y="572" width="108" height="15" stroke="none" stroke-width="0" fill-opacity="0" fill="#ffffff"></rect><g><text text-anchor="start" x="428" y="584.75" font-family="sans-serif" font-size="15" stroke="none" stroke-width="0" fill="#222222">Setup time</text></g><rect x="392" y="572" width="30" height="15" stroke="none" stroke-width="0" fill="#3366cc"></rect></g><g><rect x="524" y="572" width="156" height="15" stroke="none" stroke-width="0" fill-opacity="0" fill="#ffffff"></rect><g><text text-anchor="start" x="560" y="584.75" font-family="sans-serif" font-size="15" stroke="none" stroke-width="0" fill="#222222">Rasterization time</text></g><rect x="524" y="572" width="30" height="15" stroke="none" stroke-width="0" fill="#dc3912"></rect></g></g><g><rect x="198" y="121" width="677" height="389" stroke="none" stroke-width="0" fill-opacity="0" fill="#ffffff"></rect><g clip-path="url(#_ABSTRACT_RENDERER_ID_2)"><g><rect x="198" y="509" width="677" height="1" stroke="none" stroke-width="0" fill="#cccccc"></rect><rect x="198" y="431" width="677" height="1" stroke="none" stroke-width="0" fill="#cccccc"></rect><rect x="198" y="354" width="677" height="1" stroke="none" stroke-width="0" fill="#cccccc"></rect><rect x="198" y="276" width="677" height="1" stroke="none" stroke-width="0" fill="#cccccc"></rect><rect x="198" y="199" width="677" height="1" stroke="none" stroke-width="0" fill="#cccccc"></rect><rect x="198" y="121" width="677" height="1" stroke="none" stroke-width="0" fill="#cccccc"></rect></g><g><rect x="220" y="475" width="70" height="34" stroke="none" stroke-width="0" fill="#3366cc"></rect><rect x="333" y="475" width="69" height="34" stroke="none" stroke-width="0" fill="#3366cc"></rect><rect x="445" y="-36117" width="70" height="36626" stroke="none" stroke-width="0" fill="#3366cc"></rect><rect x="558" y="509.49960311264743" width="70" height="0.5" stroke="none" stroke-width="0" fill="#3366cc"></rect><rect x="671" y="477" width="69" height="32" stroke="none" stroke-width="0" fill="#3366cc"></rect><rect x="783" y="509.43659562666664" width="70" height="0.5" stroke="none" stroke-width="0" fill="#3366cc"></rect><rect x="220" y="441" width="70" height="33" stroke="none" stroke-width="0" fill="#dc3912"></rect><rect x="333" y="436" width="69" height="38" stroke="none" stroke-width="0" fill="#dc3912"></rect><rect x="445" y="-36179" width="70" height="61" stroke="none" stroke-width="0" fill="#dc3912"></rect><rect x="558" y="373" width="70" height="136" stroke="none" stroke-width="0" fill="#dc3912"></rect><rect x="671" y="266" width="69" height="210" stroke="none" stroke-width="0" fill="#dc3912"></rect><rect x="783" y="294" width="70" height="215" stroke="none" stroke-width="0" fill="#dc3912"></rect></g><g><rect x="198" y="509" width="677" height="1" stroke="none" stroke-width="0" fill="#333333"></rect></g></g><g></g><g><g><text text-anchor="middle" x="254.83333333333334" y="526.35" font-family="sans-serif" font-size="11" stroke="none" stroke-width="0" fill="#222222">Pathfinder (GPU)</text></g><g><text text-anchor="middle" x="367.5" y="526.35" font-family="sans-serif" font-size="11" stroke="none" stroke-width="0" fill="#222222">Loop-Blinn (GPU)</text></g><g><text text-anchor="middle" x="480.1666666666667" y="526.35" font-family="sans-serif" font-size="11" stroke="none" stroke-width="0" fill="#222222">GLyphy (GPU)</text></g><g><text text-anchor="middle" x="592.8333333333334" y="526.35" font-family="sans-serif" font-size="11" stroke="none" stroke-width="0" fill="#222222">font.rs (CPU)</text></g><g><text text-anchor="middle" x="705.5" y="526.35" font-family="sans-serif" font-size="11" stroke="none" stroke-width="0" fill="#222222">FreeType (CPU)</text></g><g><text text-anchor="middle" x="818.1666666666667" y="526.35" font-family="sans-serif" font-size="11" stroke="none" stroke-width="0" fill="#222222">stb_truetype (CPU)</text></g><g><text text-anchor="end" x="183" y="514.75" font-family="sans-serif" font-size="15" stroke="none" stroke-width="0" fill="#444444">0</text></g><g><text text-anchor="end" x="183" y="437.15" font-family="sans-serif" font-size="15" stroke="none" stroke-width="0" fill="#444444">1.5</text></g><g><text text-anchor="end" x="183" y="359.55" font-family="sans-serif" font-size="15" stroke="none" stroke-width="0" fill="#444444">3</text></g><g><text text-anchor="end" x="183" y="281.95" font-family="sans-serif" font-size="15" stroke="none" stroke-width="0" fill="#444444">4.5</text></g><g><text text-anchor="end" x="183" y="204.35000000000002" font-family="sans-serif" font-size="15" stroke="none" stroke-width="0" fill="#444444">6</text></g><g><text text-anchor="end" x="183" y="126.75" font-family="sans-serif" font-size="15" stroke="none" stroke-width="0" fill="#444444">7.5</text></g></g></g><g><g><text text-anchor="middle" x="86.25" y="315.5" font-family="sans-serif" font-size="15" font-style="italic" transform="rotate(-90 86.25 315.5)" stroke="none" stroke-width="0" fill="#222222">Time (µs/glyph)</text><path d="M73.49999999999999,510L73.5,121L88.5,121L88.49999999999999,510Z" stroke="none" stroke-width="0" fill-opacity="0" fill="#ffffff"></path></g></g><g></g></svg>
