<?xml version="1.0" encoding="UTF-8" standalone="no"?>
<svg xmlns="http://www.w3.org/2000/svg" width="1073" height="630" aria-label="A chart."><defs id="defs"><clipPath id="_ABSTRACT_RENDERER_ID_20"><rect x="198" y="121" width="677" height="389"></rect></clipPath></defs><rect x="0" y="0" width="1073" height="630" stroke="none" stroke-width="0" fill="#ffffff"></rect><g><text text-anchor="start" x="198" y="94.6" font-family="sans-serif" font-size="16" font-weight="bold" stroke="none" stroke-width="0" fill="#000000">Rasterization time, Arial</text><rect x="198" y="81" width="677" height="16" stroke="none" stroke-width="0" fill-opacity="0" fill="#ffffff"></rect></g><g><rect x="886" y="121" width="176" height="101" stroke="none" stroke-width="0" fill-opacity="0" fill="#ffffff"></rect><g><rect x="886" y="121" width="176" height="11" stroke="none" stroke-width="0" fill-opacity="0" fill="#ffffff"></rect><g><text text-anchor="start" x="912" y="130.35" font-family="sans-serif" font-size="11" stroke="none" stroke-width="0" fill="#222222">Pathfinder (GPU)</text></g><path d="M886,126.5L908,126.5" stroke="#3366cc" stroke-width="2" fill-opacity="1" fill="none"></path></g><g><rect x="886" y="139" width="176" height="11" stroke="none" stroke-width="0" fill-opacity="0" fill="#ffffff"></rect><g><text text-anchor="start" x="912" y="148.35" font-family="sans-serif" font-size="11" stroke="none" stroke-width="0" fill="#222222">Loop-Blinn (GPU)</text></g><path d="M886,144.5L908,144.5" stroke="#dc3912" stroke-width="2" fill-opacity="1" fill="none"></path></g><g><rect x="886" y="157" width="176" height="11" stroke="none" stroke-width="0" fill-opacity="0" fill="#ffffff"></rect><g><text text-anchor="start" x="912" y="166.35" font-family="sans-serif" font-size="11" stroke="none" stroke-width="0" fill="#222222">GLyphy (GPU)</text></g><path d="M886,162.5L908,162.5" stroke="#ff9900" stroke-width="2" fill-opacity="1" fill="none"></path></g><g><rect x="886" y="175" width="176" height="11" stroke="none" stroke-width="0" fill-opacity="0" fill="#ffffff"></rect><g><text text-anchor="start" x="912" y="184.35" font-family="sans-serif" font-size="11" stroke="none" stroke-width="0" fill="#222222">font.rs (CPU)</text></g><path d="M886,180.5L908,180.5" stroke="#109618" stroke-width="2" fill-opacity="1" fill="none"></path></g><g><rect x="886" y="193" width="176" height="11" stroke="none" stroke-width="0" fill-opacity="0" fill="#ffffff"></rect><g><text text-anchor="start" x="912" y="202.35" font-family="sans-serif" font-size="11" stroke="none" stroke-width="0" fill="#222222">FreeType (CPU)</text></g><path d="M886,198.5L908,198.5" stroke="#990099" stroke-width="2" fill-opacity="1" fill="none"></path></g><g><rect x="886" y="211" width="176" height="11" stroke="none" stroke-width="0" fill-opacity="0" fill="#ffffff"></rect><g><text text-anchor="start" x="912" y="220.35" font-family="sans-serif" font-size="11" stroke="none" stroke-width="0" fill="#222222">stb_truetype (CPU)</text></g><path d="M886,216.5L908,216.5" stroke="#0099c6" stroke-width="2" fill-opacity="1" fill="none"></path></g></g><g><rect x="198" y="121" width="677" height="389" stroke="none" stroke-width="0" fill-opacity="0" fill="#ffffff"></rect><g clip-path="url(https://docs.google.com/spreadsheets/d/1b-zCWX_LU2wQmFdqLZoQJxbtT8v0FuDcUJFgsm25-hQ/edit#_ABSTRACT_RENDERER_ID_20)"><g><rect x="316" y="121" width="1" height="389" stroke="none" stroke-width="0" fill="#cccccc"></rect><rect x="456" y="121" width="1" height="389" stroke="none" stroke-width="0" fill="#cccccc"></rect><rect x="595" y="121" width="1" height="389" stroke="none" stroke-width="0" fill="#cccccc"></rect><rect x="735" y="121" width="1" height="389" stroke="none" stroke-width="0" fill="#cccccc"></rect><rect x="874" y="121" width="1" height="389" stroke="none" stroke-width="0" fill="#cccccc"></rect><rect x="198" y="509" width="677" height="1" stroke="none" stroke-width="0" fill="#cccccc"></rect><rect x="198" y="412" width="677" height="1" stroke="none" stroke-width="0" fill="#cccccc"></rect><rect x="198" y="315" width="677" height="1" stroke="none" stroke-width="0" fill="#cccccc"></rect><rect x="198" y="218" width="677" height="1" stroke="none" stroke-width="0" fill="#cccccc"></rect><rect x="198" y="121" width="677" height="1" stroke="none" stroke-width="0" fill="#cccccc"></rect></g><g><rect x="198" y="509" width="677" height="1" stroke="none" stroke-width="0" fill="#333333"></rect></g><g><path d="M198.5,506.89727626272924L201.98453608247422,506.8723720652219L205.46907216494844,506.74419722301866L208.9536082474227,506.5383060672859L212.43814432989691,506.37345385615436L215.92268041237114,506.1319083599321L219.40721649484536,506.0815894654283L222.89175257731958,505.9117236223383L226.37628865979383,505.77910232260814L229.86082474226805,505.62280153878675L233.34536082474227,505.5393873319519L236.8298969072165,505.3125103937221L240.31443298969072,505.2967399046187L243.79896907216494,505.1062452130326L247.28350515463916,504.88778144026736L250.7680412371134,504.66106250141485L254.25257731958763,504.38041204195406L257.7371134020619,504.1662319464115L261.2216494845361,504.41237509366636L264.7061855670103,503.942230165194L268.19072164948454,503.77574299737614L271.67525773195877,503.69578311383555L275.159793814433,503.54472956633253L278.6443298969072,503.4821844041413L282.12886597938143,503.3499057701396L285.61340206185565,503.20905174694315L289.0979381443299,503.09713906892756L292.58247422680415,503.0239601041642L296.0670103092783,502.9467382329372L299.5515463917526,502.76843471500325L303.0360824742268,502.70401171165537L306.52061855670104,502.55647320882855L310.00515463917526,502.4943038950263L313.4896907216495,502.40882572561674L316.9742268041237,502.40752585812356L320.4587628865979,502.16006011156924L323.9432989690722,502.0564185475453L327.42783505154637,501.9336808137992L330.91237113402065,501.79175621406455L334.3969072164948,501.67475465067736L337.8814432989691,501.51312630712584L341.3659793814433,501.6009126109392L344.85051546391753,501.3313920352036L348.33505154639175,501.18744650960735L351.819587628866,500.9107703066362L355.3041237113402,500.91451483928404L358.7886597938144,500.6890326446823L362.2731958762887,500.62406998488393L365.75773195876286,500.58835816673474L369.24226804123714,500.3679880161944L372.7268041237113,500.30314947368424L376.2113402061856,500.2087582172453L379.6958762886598,500.0231141376518L383.180412371134,499.89902572896017L386.66494845360825,499.9676129463847L390.14948453608247,499.5732296364099L393.6340206185567,499.62338382869723L397.1185567010309,499.45950565182187L400.6030927835052,499.4381555394737L404.08762886597935,499.2423241832738L407.57216494845363,499.0901642105264L411.0567010309278,498.93212454483853L414.5412371134021,499.0026651917931L418.0257731958763,498.8129008278397L421.5103092783505,498.56169459649124L424.99484536082474,498.4609534726769L428.47938144329896,498.3869569734237L431.96391752577324,498.21101481006866L435.4484536082474,498.23215169230775L438.9329896907217,498.0928508599802L442.41752577319585,497.90494249088067L445.9020618556701,497.8410025864662L449.38659793814435,497.74877910085564L452.87113402061857,497.74825746518763L456.3556701030928,497.44600520123845L459.840206185567,497.24292347314986L463.32474226804123,497.18148565711317L466.80927835051546,497.0367686793454L470.2938144329897,497.01611227352277L473.7783505154639,496.8509978113601L477.2628865979382,496.677864541929L480.7474226804124,496.4836788091441L484.2319587628866,496.37980746994396L487.71649484536084,496.27233667368426L491.20103092783506,496.1441472203121L494.6855670103093,496.0630048346999L498.1701030927835,495.95385608337676L501.6546391752577,495.8670867836257L505.13917525773195,495.67380048910155L508.62371134020617,495.5049369484317L512.1082474226804,495.6105436809415L515.5927835051547,495.3759331471536L519.0773195876288,495.2619682661199L522.5618556701031,495.1365884693385L526.0463917525774,495.09810397817967L529.5309278350516,494.94195049812566L533.0154639175257,494.67608148856993L536.5,494.4900378524201L539.9845360824743,494.4583925780554L543.4690721649484,494.2945211531341L546.9536082474226,492.88892017543867L550.4381443298969,492.91553038997836L553.9226804123712,492.5686979109312L557.4072164948454,492.56533157894745L560.8917525773196,492.3730548657358L564.3762886597938,492.10463943859656L567.860824742268,492.17228426742537L571.3453608247423,491.9096336842105L574.8298969072165,491.8003427332279L578.3144329896907,491.7178152310354L581.7989690721649,491.64724380606697L585.2835051546392,491.3163249379995L588.7680412371134,491.173539081747L592.2525773195877,490.95409146101775L595.7371134020618,490.9436455222673L599.2216494845361,490.7184963217032L602.7061855670104,490.66142472050166L606.1907216494845,490.51285864874956L609.6752577319587,490.40912368421056L613.159793814433,490.2766098614959L616.6443298969073,490.0640161807661L620.1288659793814,489.973157885483L623.6134020618556,489.76016905580536L627.0979381443299,489.5710445032367L630.5824742268042,489.5505202561961L634.0670103092784,489.4792800468879L637.5515463917526,489.0887667613478L641.0360824742268,489.09586776521553L644.520618556701,488.8355461784897L648.0051546391753,488.73069394427245L651.4896907216495,488.66788859649125L654.9742268041236,488.46836705930684L658.4587628865979,488.3487523413941L661.9432989690722,488.27933033893044L665.4278350515465,488.1010533890282L668.9123711340206,487.8447779966044L672.3969072164948,487.7448808421053L675.8814432989691,487.7060648510165L679.3659793814434,487.53849435106093L682.8505154639175,487.2585462987198L686.3350515463917,487.2179202626751L689.819587628866,486.93585330060336L693.3041237113403,486.94145014443086L696.7886597938144,486.71664L700.2731958762887,486.6834360099202L703.7577319587629,486.34316317573604L707.2422680412371,486.27012323249073L710.7268041237113,486.08607619356087L714.2113402061856,485.92432091533186L717.6958762886597,485.82714382880283L721.180412371134,485.7212534720954L724.6649484536083,485.61096527200357L728.1494845360825,485.51506064823076L731.6340206185567,485.28003992034144L735.1185567010309,485.00689193136697L738.6030927835052,484.8523470965236L742.0876288659794,484.75971414249915L745.5721649484536,484.59639017543867L749.0567010309278,483.2614071245912L752.5412371134021,483.27132522000187L756.0257731958764,483.04681053788806L759.5103092783505,482.74844159037593L762.9948453608248,482.85537185488L766.479381443299,482.4995925913661L769.9639175257732,482.26868786900593L773.4484536082474,482.23947342170896L776.9329896907217,481.9785784314307L780.4175257731958,481.89941070504835L783.9020618556701,481.8158306830908L787.3865979381443,481.4417854845113L790.8711340206186,481.5693016283081L794.3556701030928,481.2943347004189L797.840206185567,481.1915387779794L801.3247422680413,481.0655585320057L804.8092783505155,480.59025397737344L808.2938144329897,480.45812503204684L811.7783505154639,480.3535255545347L815.2628865979382,480.3551367202573L818.7474226804123,480.02024979229685L822.2319587628866,479.81705810679426L825.7164948453608,479.6947319329715L829.2010309278351,479.60908188365653L832.6855670103093,479.38403084118465L836.1701030927835,479.04738112650045L839.6546391752578,478.9691942869623L843.139175257732,478.97036997396725L846.6237113402062,478.7126437356549L850.1082474226804,478.457248531856L853.5927835051547,478.30082493348266L857.0773195876288,478.0471360996575L860.5618556701031,478.2009506946127L864.0463917525773,477.9256224200373L867.5309278350516,477.5473453411306L871.0154639175258,477.209714878825L874.5,477.414580406572" stroke="#3366cc" stroke-width="2" fill-opacity="1" fill="none"></path><path d="M198.5,507.4940503629222L201.98453608247422,507.40682774239474L205.46907216494844,507.2475993287567L208.9536082474227,507.00322240030454L212.43814432989691,506.8001680977581L215.92268041237114,506.59227527519624L219.40721649484536,506.25974924489304L222.89175257731958,506.0687784384037L226.37628865979383,506.01551180278835L229.86082474226805,505.82974382818895L233.34536082474227,505.5615615978308L236.8298969072165,505.327660453887L240.31443298969072,505.2324931028489L243.79896907216494,504.9429236405932L247.28350515463916,504.65777205671003L250.7680412371134,504.3720494678471L254.25257731958763,504.1515469722276L257.7371134020619,503.8920368899966L261.2216494845361,503.65401473098876L264.7061855670103,503.2332594427245L268.19072164948454,502.9738466230441L271.67525773195877,502.8480953263158L275.159793814433,502.5903498203881L278.6443298969072,502.24087415140593L282.12886597938143,502.2149114015809L285.61340206185565,501.9204814888049L289.0979381443299,501.4976661565353L292.58247422680415,501.1377453411306L296.0670103092783,501.2050907574052L299.5515463917526,500.9436554080289L303.0360824742268,500.3627329169721L306.52061855670104,500.4252109473685L310.00515463917526,500.00653211748033L313.4896907216495,499.97377878059547L316.9742268041237,499.4999811811218L320.4587628865979,499.39981633257634L323.9432989690722,499.06928731716937L327.42783505154637,498.7131473941675L330.91237113402065,498.6174951773402L334.3969072164948,498.24173651928504L337.8814432989691,497.99551865613046L341.3659793814433,497.4984775627454L344.85051546391753,497.3994338473784L348.33505154639175,496.9042335501676L351.819587628866,497.02055834034763L355.3041237113402,496.2653147638327L358.7886597938144,496.5316815644799L362.2731958762887,496.26433054441264L365.75773195876286,496.0876871317049L369.24226804123714,495.89870119351923L372.7268041237113,495.3765594767032L376.2113402061856,495.1752347854251L379.6958762886598,494.97423951510257L383.180412371134,494.33934846803623L386.66494845360825,494.42750428715476L390.14948453608247,494.261849049187L393.6340206185567,493.94107680024507L397.1185567010309,493.6934953965184L400.6030927835052,493.3984273989912L404.08762886597935,493.108121171411L407.57216494845363,492.63022086422285L411.0567010309278,492.23960290240166L414.5412371134021,492.05302179807495L418.0257731958763,491.66446065724784L421.5103092783505,491.66986512733445L424.99484536082474,491.37038487512905L428.47938144329896,491.0054926521784L431.96391752577324,490.7963578947369L435.4484536082474,490.55901735453L438.9329896907217,489.8625182176681L442.41752577319585,489.92699657345946L445.9020618556701,489.2826520004153L449.38659793814435,489.4180198026316L452.87113402061857,488.65947520663735L456.3556701030928,488.5026770250353L459.840206185567,488.04558635639546L463.32474226804123,488.22053293829225L466.80927835051546,487.83379715318154L470.2938144329897,487.28953816157167L473.7783505154639,486.87130196028994L477.2628865979382,487.0183335004178L480.7474226804124,486.53240868158423L484.2319587628866,485.7485056673685L487.71649484536084,486.05435649823863L491.20103092783506,485.7638055165887L494.6855670103093,485.4852415230461L498.1701030927835,485.09420207157905L501.6546391752577,484.76201377913725L505.13917525773195,484.391769587825L508.62371134020617,484.26088851386993L512.1082474226804,483.7769489774587L515.5927835051547,483.5520700451431L519.0773195876288,483.25069183945783L522.5618556701031,482.6900827164687L526.0463917525774,482.66682824864813L529.5309278350516,482.4658735384286L533.0154639175257,482.0800715447155L536.5,481.4681328179044L539.9845360824743,481.25678743280224L543.4690721649484,480.73263329068334L546.9536082474226,474.59868067535615L550.4381443298969,474.73653431799397L553.9226804123712,474.35009436946604L557.4072164948454,473.94911729355005L560.8917525773196,473.3382753825002L564.3762886597938,472.6209760645055L567.860824742268,472.8563187058172L571.3453608247423,472.4922448336486L574.8298969072165,472.26998601963294L578.3144329896907,471.62477613886256L581.7989690721649,471.36024378233725L585.2835051546392,471.0988788123012L588.7680412371134,470.7158770418584L592.2525773195877,470.2241855591055L595.7371134020618,469.23965140387816L599.2216494845361,469.50509512329387L602.7061855670104,469.25098661573895L606.1907216494845,468.74177813765186L609.6752577319587,468.18284595514484L613.159793814433,467.9980329284751L616.6443298969073,467.44605475489374L620.1288659793814,467.3826602697013L623.6134020618556,466.41693115766765L627.0979381443299,466.4699792096784L630.5824742268042,465.99916915926184L634.0670103092784,465.752880673501L637.5515463917526,465.40018666971116L641.0360824742268,465.28989703847475L644.520618556701,464.72007790843713L648.0051546391753,464.1470928797978L651.4896907216495,463.7840880299109L654.9742268041236,463.3857634273869L658.4587628865979,463.0921598800946L661.9432989690722,462.61578040199845L665.4278350515465,462.13514902900823L668.9123711340206,461.65342690470675L672.3969072164948,461.8048683953787L675.8814432989691,461.13495726571114L679.3659793814434,460.7255527604016L682.8505154639175,460.2689516723072L686.3350515463917,459.8577559802269L689.819587628866,459.40988311131815L693.3041237113403,458.7617473497076L696.7886597938144,458.67804026051755L700.2731958762887,458.40617480959924L703.7577319587629,457.89629529887014L707.2422680412371,457.537943567644L710.7268041237113,457.02690917293233L714.2113402061856,456.6882833447665L717.6958762886597,456.2866844538957L721.180412371134,455.47112768920044L724.6649484536083,455.6060185329466L728.1494845360825,455.1618548955065L731.6340206185567,454.72772820195286L735.1185567010309,454.0587099631698L738.6030927835052,454.00283014774817L742.0876288659794,453.50156576390134L745.5721649484536,452.86598322925965L749.0567010309278,452.4867946233348L752.5412371134021,451.93509612445615L756.0257731958764,451.7997497484916L759.5103092783505,451.442884534413L762.9948453608248,450.8921681144842L766.479381443299,449.54107168566577L769.9639175257732,449.8610109541753L773.4484536082474,449.528707000605L776.9329896907217,448.60527714801884L780.4175257731958,448.526883306187L783.9020618556701,448.3477741679835L787.3865979381443,447.9816790551754L790.8711340206186,447.39131054333296L794.3556701030928,446.8760342696835L797.840206185567,446.4832231359395L801.3247422680413,446.0323177498004L804.8092783505155,445.6855115642081L808.2938144329897,444.87065663695205L811.7783505154639,444.91567838850335L815.2628865979382,445.06123611564124L818.7474226804123,443.9509367729182L822.2319587628866,443.8709451664497L825.7164948453608,443.4312534553776L829.2010309278351,443.02246358794855L832.6855670103093,442.39487995028895L836.1701030927835,441.7695158290092L839.6546391752578,441.771339606968L843.139175257732,441.3371012489903L846.6237113402062,440.85300757296085L850.1082474226804,440.2108736592074L853.5927835051547,439.899295839599L857.0773195876288,439.59014645048643L860.5618556701031,439.4437219154649L864.0463917525773,439.10131885099196L867.5309278350516,437.8557372973653L871.0154639175258,437.92610221190637L874.5,436.99977342582577" stroke="#dc3912" stroke-width="2" fill-opacity="1" fill="none"></path><path d="M198.5,506.06083008L201.98453608247422,505.51786288L205.46907216494844,505.48058384L208.9536082474227,505.17080464000003L212.43814432989691,504.5861352L215.92268041237114,504.55521936L219.40721649484536,504.57192664L222.89175257731958,504.30204936L226.37628865979383,504.06495032L229.86082474226805,503.58405536L233.34536082474227,503.15272352L236.8298969072165,503.1357524L240.31443298969072,502.72025096L243.79896907216494,502.29308624L247.28350515463916,501.69055328L250.7680412371134,501.70575512L254.25257731958763,501.213678L257.7371134020619,500.62952848L261.2216494845361,500.07923584L264.7061855670103,499.81057688L268.19072164948454,499.36515288L271.67525773195877,498.66474304L275.159793814433,498.3784844L278.6443298969072,498.03028544L282.12886597938143,496.67825288L285.61340206185565,496.08451976L289.0979381443299,496.71584232L292.58247422680415,496.14548232L296.0670103092783,495.69943752L299.5515463917526,495.47668672L303.0360824742268,494.63755136L306.52061855670104,494.12046376L310.00515463917526,493.52969496000003L313.4896907216495,492.83491888L316.9742268041237,492.48949024L320.4587628865979,491.91418712L323.9432989690722,490.82339496L327.42783505154637,490.3803688L330.91237113402065,489.81642632L334.3969072164948,489.58294344L337.8814432989691,489.05261728L341.3659793814433,488.142734L344.85051546391753,487.41120656L348.33505154639175,486.82365816L351.819587628866,486.34398928L355.3041237113402,485.28211088L358.7886597938144,484.381462L362.2731958762887,483.68467608000003L365.75773195876286,482.64879368L369.24226804123714,482.39402512L372.7268041237113,481.14981776L376.2113402061856,480.45586424L379.6958762886598,479.93409736L383.180412371134,479.31343704L386.66494845360825,478.46766688L390.14948453608247,476.58897088L393.6340206185567,476.84275392L397.1185567010309,476.15449624L400.6030927835052,475.52735632L404.08762886597935,474.3538348L407.57216494845363,472.78560088L411.0567010309278,472.12400656L414.5412371134021,471.8645044L418.0257731958763,471.17028704L421.5103092783505,469.35101712L424.99484536082474,469.85345384L428.47938144329896,468.86335544L431.96391752577324,467.57436512L435.4484536082474,466.76049632L438.9329896907217,466.08765L442.41752577319585,465.00457904L445.9020618556701,464.4789244L449.38659793814435,462.91349184L452.87113402061857,461.51357232L456.3556701030928,461.16510952L459.840206185567,459.63921416L463.32474226804123,459.2189636L466.80927835051546,458.03271568L470.2938144329897,457.0829848L473.7783505154639,455.95135176L477.2628865979382,454.72229192L480.7474226804124,453.89899472L484.2319587628866,453.07784704L487.71649484536084,451.7076328L491.20103092783506,450.83427584000003L494.6855670103093,449.19527072L498.1701030927835,447.48883896L501.6546391752577,446.58873328L505.13917525773195,445.936094L508.62371134020617,444.37323776L512.1082474226804,443.08368096L515.5927835051547,441.38490056L519.0773195876288,441.25627856L522.5618556701031,440.62362903999997L526.0463917525774,440.22101696L529.5309278350516,438.40662808L533.0154639175257,437.44650656L536.5,435.38201288L539.9845360824743,434.84226608L543.4690721649484,432.76309048L546.9536082474226,431.67913488L550.4381443298969,430.78110888000003L553.9226804123712,429.13304784L557.4072164948454,428.69761872000004L560.8917525773196,427.32169312L564.3762886597938,426.12711096L567.860824742268,426.092804L571.3453608247423,423.91513848L574.8298969072165,422.37232632L578.3144329896907,420.58653304L581.7989690721649,418.18160816L585.2835051546392,417.77836752L588.7680412371134,417.01809704L592.2525773195877,414.56386512L595.7371134020618,415.01758456L599.2216494845361,411.58147984L602.7061855670104,410.02788128L606.1907216494845,409.34248704000004L609.6752577319587,407.68973896L613.159793814433,405.66942296L616.6443298969073,404.83954528000004L620.1288659793814,403.57357888L623.6134020618556,401.24251368L627.0979381443299,399.3417948L630.5824742268042,398.98756632L634.0670103092784,396.8398156L637.5515463917526,395.57192472L641.0360824742268,394.81288808L644.520618556701,392.67773184L648.0051546391753,391.84376464L651.4896907216495,391.00147872L654.9742268041236,388.58455688000004L658.4587628865979,387.84462536L661.9432989690722,385.13557056L665.4278350515465,383.93386472L668.9123711340206,382.9693588L672.3969072164948,381.84519864L675.8814432989691,379.49552496L679.3659793814434,378.5473616L682.8505154639175,376.26520768L686.3350515463917,375.27523343999997L689.819587628866,373.66636816L693.3041237113403,372.25996904L696.7886597938144,369.50751256L700.2731958762887,367.24636496L703.7577319587629,365.87946424L707.2422680412371,363.5059208L710.7268041237113,362.85891528L714.2113402061856,361.85598960000004L717.6958762886597,358.59456248000004L721.180412371134,356.28562104L724.6649484536083,354.67433464L728.1494845360825,351.66961607999997L731.6340206185567,352.03150368L735.1185567010309,348.94411008L738.6030927835052,348.63287976000004L742.0876288659794,344.33051848L745.5721649484536,343.67538048L749.0567010309278,342.88529608L752.5412371134021,339.34833464L756.0257731958764,337.8709548L759.5103092783505,335.94458912000005L762.9948453608248,333.69069712L766.479381443299,332.17475007999997L769.9639175257732,330.90685143999997L773.4484536082474,329.2497112L776.9329896907217,328.8585296L780.4175257731958,326.30714248L783.9020618556701,324.24428616L787.3865979381443,321.40421928L790.8711340206186,318.43573216000004L794.3556701030928,318.47361648000003L797.840206185567,314.83600007999996L801.3247422680413,311.6005612L804.8092783505155,311.80613912L808.2938144329897,309.96978168L811.7783505154639,307.95689976000006L815.2628865979382,307.583442L818.7474226804123,304.24481064L822.2319587628866,302.49824416L825.7164948453608,301.04633264L829.2010309278351,298.61639728L832.6855670103093,295.72085416000004L836.1701030927835,294.86850352L839.6546391752578,290.91454296L843.139175257732,289.6177228L846.6237113402062,288.18933184L850.1082474226804,282.32949976L853.5927835051547,282.60158088000003L857.0773195876288,282.041596L860.5618556701031,279.51206104000005L864.0463917525773,276.80890383999997L867.5309278350516,273.77195800000004L871.0154639175258,271.89674623999997L874.5,271.12537896000003" stroke="#ff9900" stroke-width="2" fill-opacity="1" fill="none"></path><path d="M198.5,499.023082494427L201.98453608247422,498.38730674323415L205.46907216494844,497.9130253557045L208.9536082474227,497.22817654118853L212.43814432989691,496.6277011706048L215.92268041237114,496.21554641200254L219.40721649484536,495.38248497995914L222.89175257731958,494.65908816578786L226.37628865979383,493.7843908462125L229.86082474226805,493.3358257655757L233.34536082474227,493.12471055622615L236.8298969072165,492.7910235996574L240.31443298969072,491.8327492938921L243.79896907216494,491.50702432837886L247.28350515463916,490.9477350959589L250.7680412371134,490.45453234018186L254.25257731958763,490.0116707019355L257.7371134020619,489.72739656373756L261.2216494845361,488.91477576620775L264.7061855670103,488.38050440638614L268.19072164948454,488.15778832722617L271.67525773195877,487.3218974434727L275.159793814433,487.0998663104956L278.6443298969072,486.6619065526949L282.12886597938143,486.16851070527963L285.61340206185565,485.88672779113847L289.0979381443299,485.87648520529945L292.58247422680415,484.56138559878264L296.0670103092783,484.25996607632817L299.5515463917526,484.2938816087351L303.0360824742268,483.8156512123251L306.52061855670104,483.34126176412724L310.00515463917526,482.6737853701273L313.4896907216495,482.59401053209655L316.9742268041237,482.2688849781188L320.4587628865979,482.0568960869743L323.9432989690722,481.47563491432726L327.42783505154637,481.2544211739867L330.91237113402065,479.90187041794945L334.3969072164948,479.7792847264344L337.8814432989691,479.21143818001957L341.3659793814433,478.6723974488886L344.85051546391753,478.473262304698L348.33505154639175,477.924109889364L351.819587628866,477.74023863651877L355.3041237113402,478.3498483487805L358.7886597938144,476.3656407044114L362.2731958762887,476.4329769341699L365.75773195876286,475.55505503817784L369.24226804123714,475.2019515609685L372.7268041237113,474.7010295454544L376.2113402061856,474.030851965588L379.6958762886598,473.60976964238915L383.180412371134,473.23328675055507L386.66494845360825,472.1425645816278L390.14948453608247,472.0703852358172L393.6340206185567,471.6932194931772L397.1185567010309,470.05876842783056L400.6030927835052,471.11091688795824L404.08762886597935,470.1857250185802L407.57216494845363,469.444111941069L411.0567010309278,469.6040136442715L414.5412371134021,468.7882392821536L418.0257731958763,464.99470288254656L421.5103092783505,468.161560139593L424.99484536082474,467.8416082119941L428.47938144329896,467.0745081977667L431.96391752577324,466.37651597843615L435.4484536082474,466.45438709916067L438.9329896907217,465.95088929219594L442.41752577319585,464.61616478822987L445.9020618556701,464.41001514828645L449.38659793814435,463.8571365597305L452.87113402061857,463.09995008919736L456.3556701030928,463.3834285714285L459.840206185567,462.3377125724249L463.32474226804123,462.3513455738633L466.80927835051546,460.99949877067996L470.2938144329897,460.57185925676833L473.7783505154639,460.7133814584249L477.2628865979382,459.4348727765471L480.7474226804124,458.9479053999762L484.2319587628866,458.30483920205916L487.71649484536084,457.595887089042L491.20103092783506,457.9285679469142L494.6855670103093,456.0088424269582L498.1701030927835,456.71100705231424L501.6546391752577,456.46231834130805L505.13917525773195,456.1226688830552L508.62371134020617,454.2784912992419L512.1082474226804,453.7090704630425L515.5927835051547,453.16319449117213L519.0773195876288,453.02680496354924L522.5618556701031,451.91330348197187L526.0463917525774,451.8846864751821L529.5309278350516,451.4382824644549L533.0154639175257,451.7116190665346L536.5,450.41310486972236L539.9845360824743,449.679059004934L543.4690721649484,448.6076283352519L546.9536082474226,448.531669464779L550.4381443298969,447.9678298659758L553.9226804123712,447.0227006629275L557.4072164948454,447.07486600067097L560.8917525773196,445.58568453998845L564.3762886597938,447.3268538842666L567.860824742268,448.17400495232084L571.3453608247423,443.6074625040685L574.8298969072165,443.73309568607533L578.3144329896907,443.04810069642645L581.7989690721649,442.87275681863713L585.2835051546392,444.0154579875668L588.7680412371134,443.20764957849167L592.2525773195877,441.61865613063117L595.7371134020618,439.9979261426398L599.2216494845361,439.04044005932013L602.7061855670104,438.8714377266315L606.1907216494845,439.1507576952721L609.6752577319587,438.5912273391813L613.159793814433,437.478128778737L616.6443298969073,437.13271079056176L620.1288659793814,435.6477493734337L623.6134020618556,434.3804004001418L627.0979381443299,434.14955603029705L630.5824742268042,432.3234200745956L634.0670103092784,433.51273759281906L637.5515463917526,434.40429820797794L641.0360824742268,431.77735710351044L644.520618556701,432.3117913302942L648.0051546391753,431.9987598788244L651.4896907216495,430.663672153357L654.9742268041236,429.6749433910515L658.4587628865979,428.73488491829494L661.9432989690722,428.95791888199085L665.4278350515465,427.6267668067605L668.9123711340206,426.3775045347432L672.3969072164948,427.2986114161626L675.8814432989691,425.49525222380646L679.3659793814434,426.3705220309938L682.8505154639175,426.26578718535507L686.3350515463917,425.07068789092966L689.819587628866,424.14714132248105L693.3041237113403,422.64536998769097L696.7886597938144,424.522505292358L700.2731958762887,425.41218812989916L703.7577319587629,425.4415110950622L707.2422680412371,423.077615618737L710.7268041237113,420.60606906821L714.2113402061856,418.5623171955871L717.6958762886597,418.9194277264324L721.180412371134,416.7712682955977L724.6649484536083,415.67502023051566L728.1494845360825,417.34227010550046L731.6340206185567,417.0271855412128L735.1185567010309,415.14498632024817L738.6030927835052,413.6091923235325L742.0876288659794,413.02200712805654L745.5721649484536,412.9336536850404L749.0567010309278,412.65073334858306L752.5412371134021,410.2408145637488L756.0257731958764,410.37399659342555L759.5103092783505,409.4153620597025L762.9948453608248,406.82968879677236L766.479381443299,408.9147938578494L769.9639175257732,407.97759124405866L773.4484536082474,406.86259225954393L776.9329896907217,409.23848048927624L780.4175257731958,408.1391171477084L783.9020618556701,404.7613984705361L787.3865979381443,405.49485086229987L790.8711340206186,408.1812554992281L794.3556701030928,402.3886871549503L797.840206185567,403.5361908662711L801.3247422680413,401.9679160296535L804.8092783505155,400.61607229535457L808.2938144329897,399.4894797316457L811.7783505154639,397.840549670304L815.2628865979382,398.01888274574645L818.7474226804123,395.747114499341L822.2319587628866,396.3681226612239L825.7164948453608,397.3225689991571L829.2010309278351,398.06468385151175L832.6855670103093,395.71313629477595L836.1701030927835,391.32232472212377L839.6546391752578,389.9786754599817L843.139175257732,389.82413610197426L846.6237113402062,390.4930478259759L850.1082474226804,387.51619910403275L853.5927835051547,387.92925981620755L857.0773195876288,388.9052826357238L860.5618556701031,387.4388530090165L864.0463917525773,385.81856561686817L867.5309278350516,386.1235846687682L871.0154639175258,385.8898752023787L874.5,382.24325233644896" stroke="#109618" stroke-width="2" fill-opacity="1" fill="none"></path><path d="M198.5,495.35652312L201.98453608247422,493.7063436L205.46907216494844,493.2060952L208.9536082474227,492.54048896L212.43814432989691,491.25014064L215.92268041237114,490.22086976L219.40721649484536,489.3514704L222.89175257731958,488.31987152L226.37628865979383,487.31339952L229.86082474226805,486.49717944L233.34536082474227,485.88895064L236.8298969072165,484.72668112L240.31443298969072,483.90998768L243.79896907216494,482.86438976L247.28350515463916,481.9974348L250.7680412371134,480.32121272L254.25257731958763,479.91140712L257.7371134020619,478.53367344000003L261.2216494845361,477.86018304L264.7061855670103,477.02888528L268.19072164948454,476.10805264L271.67525773195877,474.8749188L275.159793814433,474.00980296L278.6443298969072,473.1543328L282.12886597938143,474.35852184L285.61340206185565,472.00273328000003L289.0979381443299,471.08484943999997L292.58247422680415,469.70154408L296.0670103092783,469.74057688L299.5515463917526,466.77361072L303.0360824742268,467.26924968000003L306.52061855670104,466.94495928000003L310.00515463917526,466.1373916L313.4896907216495,465.5773136L316.9742268041237,465.26304136L320.4587628865979,464.42500792L323.9432989690722,463.7217036L327.42783505154637,463.06878496L330.91237113402065,462.04663L334.3969072164948,460.8249732L337.8814432989691,460.073262L341.3659793814433,460.32617591999997L344.85051546391753,459.31723624L348.33505154639175,458.94264552L351.819587628866,457.6335956L355.3041237113402,457.00214888L358.7886597938144,456.0959516L362.2731958762887,454.52119152L365.75773195876286,453.56399552L369.24226804123714,452.932122L372.7268041237113,453.23911536L376.2113402061856,451.96694872L379.6958762886598,451.35172816L383.180412371134,450.7613784L386.66494845360825,451.39332176L390.14948453608247,446.79433448L393.6340206185567,445.93253216L397.1185567010309,445.07094712L400.6030927835052,445.29889712L404.08762886597935,444.22828872L407.57216494845363,443.72725656L411.0567010309278,442.01637056L414.5412371134021,441.32520288L418.0257731958763,441.14344040000003L421.5103092783505,440.63494312L424.99484536082474,439.77856504L428.47938144329896,438.97814432L431.96391752577324,437.91408536L435.4484536082474,437.62622039999997L438.9329896907217,436.44162536L442.41752577319585,436.1675344L445.9020618556701,435.00359648L449.38659793814435,434.04096072L452.87113402061857,434.30122336L456.3556701030928,432.74978208L459.840206185567,432.09386808L463.32474226804123,430.76784704L466.80927835051546,430.75911704L470.2938144329897,429.00263328L473.7783505154639,429.3241456L477.2628865979382,427.87218752L480.7474226804124,427.99539304L484.2319587628866,426.2900244L487.71649484536084,425.27250992L491.20103092783506,425.19064192L494.6855670103093,424.25234152L498.1701030927835,425.27659168L501.6546391752577,423.04747736L505.13917525773195,421.76126512L508.62371134020617,421.3310352L512.1082474226804,421.54950248L515.5927835051547,420.96207824L519.0773195876288,418.85279384L522.5618556701031,416.23390248L526.0463917525774,414.54787952L529.5309278350516,415.09651928L533.0154639175257,412.59329848L536.5,411.42226792L539.9845360824743,411.05209264L543.4690721649484,410.21686056L546.9536082474226,410.23486376L550.4381443298969,408.52270512L553.9226804123712,407.50374728L557.4072164948454,407.15500512L560.8917525773196,406.18687528L564.3762886597938,405.0180796L567.860824742268,403.8398788L571.3453608247423,405.51235280000003L574.8298969072165,403.70366752L578.3144329896907,401.55004248L581.7989690721649,398.49783272L585.2835051546392,398.1520316L588.7680412371134,398.45303424L592.2525773195877,391.80915504L595.7371134020618,390.34398168L599.2216494845361,388.53620432L602.7061855670104,390.5769136L606.1907216494845,389.52060688L609.6752577319587,389.05724176L613.159793814433,387.58722616L616.6443298969073,385.38901216L620.1288659793814,383.88572168L623.6134020618556,383.13567112L627.0979381443299,381.14541736L630.5824742268042,380.58849768L634.0670103092784,379.04549928000006L637.5515463917526,378.87945856L641.0360824742268,376.76264696L644.520618556701,378.38025776L648.0051546391753,378.18506272L651.4896907216495,376.2546696L654.9742268041236,375.45718992L658.4587628865979,375.137734L661.9432989690722,373.92142384L665.4278350515465,374.50707880000004L668.9123711340206,372.74360328L672.3969072164948,373.56936816L675.8814432989691,372.74389816L679.3659793814434,369.77312184000004L682.8505154639175,371.35351568L686.3350515463917,369.44031096000003L689.819587628866,369.00675976L693.3041237113403,367.51207512L696.7886597938144,365.443166L700.2731958762887,363.46227856L703.7577319587629,363.56340688L707.2422680412371,363.5149612L710.7268041237113,364.25407016L714.2113402061856,360.80464152L717.6958762886597,359.34463632L721.180412371134,360.41935752L724.6649484536083,358.1928816L728.1494845360825,357.44933392L731.6340206185567,358.33644936L735.1185567010309,356.05784952L738.6030927835052,352.91304744L742.0876288659794,352.71075976L745.5721649484536,352.25366472L749.0567010309278,352.07686088L752.5412371134021,351.23926975999996L756.0257731958764,351.70741504L759.5103092783505,350.28752128L762.9948453608248,344.49400616L766.479381443299,349.81051408L769.9639175257732,350.4533292L773.4484536082474,350.14888888L776.9329896907217,347.79341848L780.4175257731958,348.86328968L783.9020618556701,347.48076032L787.3865979381443,345.3107772L790.8711340206186,345.85644488L794.3556701030928,342.55057624L797.840206185567,344.20787168000004L801.3247422680413,342.88572288L804.8092783505155,340.4322592L808.2938144329897,341.6492988L811.7783505154639,340.95901576L815.2628865979382,337.54537624L818.7474226804123,337.96546384L822.2319587628866,338.36404847999995L825.7164948453608,336.77057128L829.2010309278351,333.92967408000004L832.6855670103093,335.76856904L836.1701030927835,334.1868172L839.6546391752578,334.3277L843.139175257732,331.97755296L846.6237113402062,332.81432152L850.1082474226804,327.15499232L853.5927835051547,332.61494384L857.0773195876288,325.83286680000003L860.5618556701031,323.47679888L864.0463917525773,322.74777792L867.5309278350516,323.59582176000004L871.0154639175258,321.84381552L874.5,320.87653151999996" stroke="#990099" stroke-width="2" fill-opacity="1" fill="none"></path><path d="M198.5,489.95366968L201.98453608247422,489.5316188L205.46907216494844,489.35265768L208.9536082474227,489.0931012L212.43814432989691,487.58287328L215.92268041237114,487.39104608L219.40721649484536,485.81738016L222.89175257731958,486.10831808L226.37628865979383,484.93652704L229.86082474226805,484.60116312L233.34536082474227,483.47244784L236.8298969072165,482.78074472000003L240.31443298969072,480.79765344L243.79896907216494,481.25806976L247.28350515463916,480.18757776L250.7680412371134,479.56084136L254.25257731958763,478.5320904L257.7371134020619,478.01366808L261.2216494845361,477.05880784L264.7061855670103,476.396228L268.19072164948454,473.20384160000003L271.67525773195877,473.50728864L275.159793814433,473.87887624L278.6443298969072,473.05625416L282.12886597938143,470.92975808L285.61340206185565,469.2964488L289.0979381443299,469.25761L292.58247422680415,467.97105632L296.0670103092783,467.25244152L299.5515463917526,465.69878088L303.0360824742268,466.4608672L306.52061855670104,466.30482136L310.00515463917526,463.41803928L313.4896907216495,464.21700888L316.9742268041237,461.58357528L320.4587628865979,460.02757888L323.9432989690722,459.1002356L327.42783505154637,459.20036288L330.91237113402065,457.7950812L334.3969072164948,456.39336136000003L337.8814432989691,453.88222536L341.3659793814433,455.36206512L344.85051546391753,453.75301360000003L348.33505154639175,453.5064396L351.819587628866,450.86891648L355.3041237113402,452.59837216L358.7886597938144,451.11410144L362.2731958762887,447.84818128L365.75773195876286,447.36403488L369.24226804123714,446.47247296L372.7268041237113,447.5322484L376.2113402061856,446.74624576L379.6958762886598,444.9025396L383.180412371134,443.8254128L386.66494845360825,443.52311424L390.14948453608247,438.97507136L393.6340206185567,437.52766840000004L397.1185567010309,439.33733144L400.6030927835052,437.47771728L404.08762886597935,434.45884448000004L407.57216494845363,434.74108344L411.0567010309278,434.1407388L414.5412371134021,430.21438832L418.0257731958763,433.01058792000003L421.5103092783505,429.35948464L424.99484536082474,428.0410296L428.47938144329896,426.9084188L431.96391752577324,426.79767584L435.4484536082474,425.38429272L438.9329896907217,426.19295456L442.41752577319585,423.97194168L445.9020618556701,422.96023168L449.38659793814435,418.98074072L452.87113402061857,418.8952876L456.3556701030928,418.4754716L459.840206185567,416.72063296L463.32474226804123,415.2900692L466.80927835051546,410.04313744L470.2938144329897,411.5052456L473.7783505154639,408.96228584L477.2628865979382,410.75668496000003L480.7474226804124,411.17366856L484.2319587628866,410.73453016L487.71649484536084,411.19898944L491.20103092783506,409.87078008000003L494.6855670103093,407.55356648L498.1701030927835,404.04251568L501.6546391752577,406.57342416L505.13917525773195,394.63468744L508.62371134020617,394.84198032L512.1082474226804,396.02132184000004L515.5927835051547,395.83937312L519.0773195876288,391.55660584L522.5618556701031,388.55882472L526.0463917525774,388.40775304L529.5309278350516,385.33404808L533.0154639175257,382.06188112L536.5,383.24963448L539.9845360824743,384.61508408000003L543.4690721649484,384.37449304L546.9536082474226,377.880312L550.4381443298969,375.7905052L553.9226804123712,373.12681536L557.4072164948454,375.73194824L560.8917525773196,373.46935728L564.3762886597938,368.90317928L567.860824742268,366.31407856L571.3453608247423,368.08120128L574.8298969072165,364.40175848L578.3144329896907,364.29993952L581.7989690721649,361.26379296000005L585.2835051546392,359.06459344L588.7680412371134,363.65610008L592.2525773195877,360.40784168L595.7371134020618,359.89871584L599.2216494845361,355.03695944000003L602.7061855670104,346.33013856L606.1907216494845,350.85660088L609.6752577319587,350.86335984000004L613.159793814433,346.5501268L616.6443298969073,340.46611608L620.1288659793814,342.00792720000004L623.6134020618556,341.2050388L627.0979381443299,336.61502208L630.5824742268042,338.29622608L634.0670103092784,338.62778760000003L637.5515463917526,333.55890128L641.0360824742268,332.08177752L644.520618556701,329.55410496L648.0051546391753,327.56644303999997L651.4896907216495,325.61172232L654.9742268041236,323.63327928L658.4587628865979,315.7823864L661.9432989690722,320.75282936L665.4278350515465,320.08264472L668.9123711340206,315.35609856L672.3969072164948,313.88431368L675.8814432989691,309.48888672L679.3659793814434,310.28965664L682.8505154639175,309.62399608L686.3350515463917,307.73342728L689.819587628866,304.8168468L693.3041237113403,304.5376032L696.7886597938144,302.66213536L700.2731958762887,300.45489648L703.7577319587629,298.50055599999996L707.2422680412371,294.74917800000003L710.7268041237113,290.79368872L714.2113402061856,284.94871704L717.6958762886597,287.79847616L721.180412371134,284.24269672L724.6649484536083,287.38026648L728.1494845360825,284.4417252L731.6340206185567,281.77506328000004L735.1185567010309,272.56277152L738.6030927835052,276.53341608L742.0876288659794,275.78981408000004L745.5721649484536,269.60057775999996L749.0567010309278,272.79981624000004L752.5412371134021,270.33111968000003L756.0257731958764,270.7875008L759.5103092783505,267.03211864L762.9948453608248,265.46800528L766.479381443299,257.61759352L769.9639175257732,248.85947128000004L773.4484536082474,257.02293696L776.9329896907217,260.67870400000004L780.4175257731958,263.94256L783.9020618556701,243.00223104000003L787.3865979381443,229.69881296L790.8711340206186,241.82480624000004L794.3556701030928,237.69789079999998L797.840206185567,232.3788376L801.3247422680413,237.95827760000003L804.8092783505155,232.20835040000003L808.2938144329897,229.25336568L811.7783505154639,230.79610024000004L815.2628865979382,220.79453888L818.7474226804123,226.73585872L822.2319587628866,221.70434456000004L825.7164948453608,219.50405864000004L829.2010309278351,212.97776672000003L832.6855670103093,216.27958464L836.1701030927835,210.4041472L839.6546391752578,207.3222632L843.139175257732,208.71360016L846.6237113402062,197.49047511999999L850.1082474226804,196.30759504000002L853.5927835051547,196.86681168L857.0773195876288,197.93979464000006L860.5618556701031,190.35309872L864.0463917525773,188.91403000000003L867.5309278350516,191.37322832L871.0154639175258,178.14950543999998L874.5,179.6610448" stroke="#0099c6" stroke-width="2" fill-opacity="1" fill="none"></path></g></g><g></g><g><g><text text-anchor="middle" x="316.9742268041237" y="531.75" font-family="sans-serif" font-size="15" stroke="none" stroke-width="0" fill="#444444">40</text></g><g><text text-anchor="middle" x="456.3556701030928" y="531.75" font-family="sans-serif" font-size="15" stroke="none" stroke-width="0" fill="#444444">80</text></g><g><text text-anchor="middle" x="595.7371134020618" y="531.75" font-family="sans-serif" font-size="15" stroke="none" stroke-width="0" fill="#444444">120</text></g><g><text text-anchor="middle" x="735.1185567010309" y="531.75" font-family="sans-serif" font-size="15" stroke="none" stroke-width="0" fill="#444444">160</text></g><g><text text-anchor="middle" x="874.5" y="531.75" font-family="sans-serif" font-size="15" stroke="none" stroke-width="0" fill="#444444">200</text></g><g><text text-anchor="end" x="183" y="514.75" font-family="sans-serif" font-size="15" stroke="none" stroke-width="0" fill="#444444">0</text></g><g><text text-anchor="end" x="183" y="417.75" font-family="sans-serif" font-size="15" stroke="none" stroke-width="0" fill="#444444">12.5</text></g><g><text text-anchor="end" x="183" y="320.75" font-family="sans-serif" font-size="15" stroke="none" stroke-width="0" fill="#444444">25</text></g><g><text text-anchor="end" x="183" y="223.75" font-family="sans-serif" font-size="15" stroke="none" stroke-width="0" fill="#444444">37.5</text></g><g><text text-anchor="end" x="183" y="126.75" font-family="sans-serif" font-size="15" stroke="none" stroke-width="0" fill="#444444">50</text></g></g></g><g><g><text text-anchor="middle" x="536.5" y="587.25" font-family="sans-serif" font-size="15" font-style="italic" stroke="none" stroke-width="0" fill="#222222">Font size (px)</text><rect x="198" y="574.5" width="677" height="15" stroke="none" stroke-width="0" fill-opacity="0" fill="#ffffff"></rect></g><g><text text-anchor="middle" x="82.25" y="315.5" font-family="sans-serif" font-size="15" font-style="italic" transform="rotate(-90 82.25 315.5)" stroke="none" stroke-width="0" fill="#222222">Rasterization time (µs/glyph)</text><path d="M69.49999999999999,510L69.5,121L84.5,121L84.49999999999999,510Z" stroke="none" stroke-width="0" fill-opacity="0" fill="#ffffff"></path></g></g><g></g></svg>

