<?xml version="1.0" encoding="UTF-8" standalone="no"?>
<!DOCTYPE svg PUBLIC "-//W3C//DTD SVG 1.1//EN"
 "http://www.w3.org/Graphics/SVG/1.1/DTD/svg11.dtd">
<!-- Generated by graphviz version 2.38.0 (20140413.2041)
 -->
<!-- Title: G Pages: 1 -->
<svg width="640pt" height="537pt"
 viewBox="0.00 0.00 640.00 537.40" xmlns="http://www.w3.org/2000/svg" xmlns:xlink="http://www.w3.org/1999/xlink">
<g id="graph0" class="graph" transform="scale(1 1) rotate(0) translate(4 533.404)">
<title>G</title>
<polygon fill="white" stroke="none" points="-4,4 -4,-533.404 636,-533.404 636,4 -4,4"/>
<g id="clust1" class="cluster"><title>cluster_0</title>
<polygon fill="lightgray" stroke="lightgray" points="8,-152 8,-521.404 312,-521.404 312,-152 8,-152"/>
<text text-anchor="start" x="108.522" y="-506.204" font-family="Helvetica Neue" font-size="14.00" fill="gray">Backend Thread</text>
</g>
<g id="clust2" class="cluster"><title>cluster_1</title>
<polygon fill="lightgray" stroke="lightgray" points="320,-8 320,-228.702 624,-228.702 624,-8 320,-8"/>
<text text-anchor="start" x="411.45" y="-213.502" font-family="Helvetica Neue" font-size="14.00" fill="gray">Compositor Thread</text>
</g>
<!-- AABB Tree Building -->
<g id="node1" class="node"><title>AABB Tree Building</title>
<polygon fill="white" stroke="gray" points="304,-488.702 16,-488.702 16,-452.702 304,-452.702 304,-488.702"/>
<text text-anchor="middle" x="160" y="-467.853" font-family="Helvetica Neue" font-size="14.00">AABB Tree Building</text>
</g>
<!-- Resource and Raster Operation Building -->
<g id="node2" class="node"><title>Resource and Raster Operation Building</title>
<polygon fill="white" stroke="gray" points="304,-416.702 16,-416.702 16,-380.702 304,-380.702 304,-416.702"/>
<text text-anchor="middle" x="160" y="-395.853" font-family="Helvetica Neue" font-size="14.00">Resource and Raster Operation Building</text>
</g>
<!-- AABB Tree Building&#45;&gt;Resource and Raster Operation Building -->
<g id="edge1" class="edge"><title>AABB Tree Building&#45;&gt;Resource and Raster Operation Building</title>
<path fill="none" stroke="#606060" d="M160,-452.399C160,-444.685 160,-435.414 160,-426.814"/>
<polygon fill="#606060" stroke="#606060" points="160,-416.806 164.5,-426.806 160,-421.806 160,-426.806 160,-426.806 160,-426.806 160,-421.806 155.5,-426.806 160,-416.806 160,-416.806"/>
</g>
<!-- Node Compilation -->
<g id="node3" class="node"><title>Node Compilation</title>
<polygon fill="white" stroke="gray" points="304,-344.702 16,-344.702 16,-308.702 304,-308.702 304,-344.702"/>
<text text-anchor="middle" x="160" y="-323.853" font-family="Helvetica Neue" font-size="14.00">Node Compilation</text>
</g>
<!-- Resource and Raster Operation Building&#45;&gt;Node Compilation -->
<g id="edge2" class="edge"><title>Resource and Raster Operation Building&#45;&gt;Node Compilation</title>
<path fill="none" stroke="#606060" d="M160,-380.399C160,-372.685 160,-363.414 160,-354.814"/>
<polygon fill="#606060" stroke="#606060" points="160,-344.806 164.5,-354.806 160,-349.806 160,-354.806 160,-354.806 160,-354.806 160,-349.806 155.5,-354.806 160,-344.806 160,-344.806"/>
</g>
<!-- Visible Node Collection -->
<g id="node4" class="node"><title>Visible Node Collection</title>
<polygon fill="white" stroke="gray" points="304,-272.702 16,-272.702 16,-236.702 304,-236.702 304,-272.702"/>
<text text-anchor="middle" x="160" y="-251.853" font-family="Helvetica Neue" font-size="14.00">Visible Node Collection</text>
</g>
<!-- Node Compilation&#45;&gt;Visible Node Collection -->
<g id="edge3" class="edge"><title>Node Compilation&#45;&gt;Visible Node Collection</title>
<path fill="none" stroke="#606060" d="M160,-308.399C160,-300.685 160,-291.414 160,-282.814"/>
<polygon fill="#606060" stroke="#606060" points="160,-272.806 164.5,-282.806 160,-277.806 160,-282.806 160,-282.806 160,-282.806 160,-277.806 155.5,-282.806 160,-272.806 160,-272.806"/>
</g>
<!-- Frame Publication -->
<g id="node5" class="node"><title>Frame Publication</title>
<polygon fill="white" stroke="gray" points="304,-196 16,-196 16,-160 304,-160 304,-196"/>
<text text-anchor="middle" x="160" y="-175.151" font-family="Helvetica Neue" font-size="14.00">Frame Publication</text>
</g>
<!-- Visible Node Collection&#45;&gt;Frame Publication -->
<g id="edge4" class="edge"><title>Visible Node Collection&#45;&gt;Frame Publication</title>
<path fill="none" stroke="#606060" d="M160,-236.376C160,-227.513 160,-216.515 160,-206.526"/>
<polygon fill="#606060" stroke="#606060" points="160,-196.232 164.5,-206.232 160,-201.232 160,-206.232 160,-206.232 160,-206.232 160,-201.232 155.5,-206.232 160,-196.232 160,-196.232"/>
</g>
<!-- Texture Upload -->
<g id="node6" class="node"><title>Texture Upload</title>
<polygon fill="white" stroke="gray" points="616,-196 328,-196 328,-160 616,-160 616,-196"/>
<text text-anchor="middle" x="472" y="-175.151" font-family="Helvetica Neue" font-size="14.00">Texture Upload</text>
</g>
<!-- Frame Publication&#45;&gt;Texture Upload -->
<g id="edge7" class="edge"><title>Frame Publication&#45;&gt;Texture Upload</title>
<path fill="none" stroke="#606060" d="M304.117,-178C308.544,-178 312.97,-178 317.397,-178"/>
<polygon fill="#606060" stroke="#606060" points="327.726,-178 317.726,-182.5 322.726,-178 317.726,-178 317.726,-178 317.726,-178 322.726,-178 317.726,-173.5 327.726,-178 327.726,-178"/>
</g>
<!-- Resource Rasterization -->
<g id="node7" class="node"><title>Resource Rasterization</title>
<polygon fill="white" stroke="gray" points="616,-124 328,-124 328,-88 616,-88 616,-124"/>
<text text-anchor="middle" x="472" y="-103.151" font-family="Helvetica Neue" font-size="14.00">Resource Rasterization</text>
</g>
<!-- Texture Upload&#45;&gt;Resource Rasterization -->
<g id="edge5" class="edge"><title>Texture Upload&#45;&gt;Resource Rasterization</title>
<path fill="none" stroke="#606060" d="M472,-159.697C472,-151.983 472,-142.712 472,-134.112"/>
<polygon fill="#606060" stroke="#606060" points="472,-124.104 476.5,-134.104 472,-129.104 472,-134.104 472,-134.104 472,-134.104 472,-129.104 467.5,-134.104 472,-124.104 472,-124.104"/>
</g>
<!-- Drawing -->
<g id="node8" class="node"><title>Drawing</title>
<polygon fill="white" stroke="gray" points="616,-52 328,-52 328,-16 616,-16 616,-52"/>
<text text-anchor="middle" x="472" y="-31.151" font-family="Helvetica Neue" font-size="14.00">Drawing</text>
</g>
<!-- Resource Rasterization&#45;&gt;Drawing -->
<g id="edge6" class="edge"><title>Resource Rasterization&#45;&gt;Drawing</title>
<path fill="none" stroke="#606060" d="M472,-87.6966C472,-79.9827 472,-70.7125 472,-62.1124"/>
<polygon fill="#606060" stroke="#606060" points="472,-52.1043 476.5,-62.1043 472,-57.1043 472,-62.1043 472,-62.1043 472,-62.1043 472,-57.1043 467.5,-62.1044 472,-52.1043 472,-52.1043"/>
</g>
</g>
</svg>
